<svg version="1.1" xmlns="http://www.w3.org/2000/svg" xmlns:xlink="http://www.w3.org/1999/xlink" width="1127.01904296875" height="881"><defs/><g><g transform="translate(-14,2) scale(1,1)"><rect fill="#C0C0C0" stroke="none" x="159" y="151" width="105.09716796875" height="72" opacity="0.2"/></g><g transform="translate(-14,2) scale(1,1)"><rect fill="#ffffff" stroke="none" x="152" y="144" width="105.09716796875" height="72"/></g><g transform="translate(-14,2) scale(1,1)"><path fill="none" stroke="#000000" d="M 152 144 L 257.09716796875 144 L 257.09716796875 216 L 152 216 L 152 144 Z Z" stroke-miterlimit="10"/></g><g transform="translate(-14,2) scale(1,1)"><path fill="none" stroke="#000000" d="M 152 169 L 257.09716796875 169" stroke-miterlimit="10"/></g><g transform="translate(-14,2) scale(1,1)"><path fill="none" stroke="#000000" d="M 152 207 L 257.09716796875 207" stroke-miterlimit="10"/></g><g transform="translate(-14,2) scale(1,1)"><g><path fill="none" stroke="none"/><text fill="#000000" stroke="none" font-family="Arial" font-size="13px" font-style="normal" font-weight="bold" text-decoration="none" x="159.391357421875" y="163.5">RegisteredUser</text></g></g><g transform="translate(-14,2) scale(1,1)"><g><path fill="none" stroke="none"/><text fill="#000000" stroke="none" font-family="Arial" font-size="13px" font-style="normal" font-weight="normal" text-decoration="none" x="157" y="186.5">+name</text></g></g><g transform="translate(-14,2) scale(1,1)"><g><path fill="none" stroke="none"/><text fill="#000000" stroke="none" font-family="Arial" font-size="13px" font-style="normal" font-weight="normal" text-decoration="none" x="157" y="201.5">+address</text></g></g><g transform="translate(-14,2) scale(1,1)"><rect fill="#C0C0C0" stroke="none" x="375" y="295" width="179.1552734375" height="87" opacity="0.2"/></g><g transform="translate(-14,2) scale(1,1)"><rect fill="#ffffff" stroke="none" x="368" y="288" width="179.1552734375" height="87"/></g><g transform="translate(-14,2) scale(1,1)"><path fill="none" stroke="#000000" d="M 368 288 L 547.1552734375 288 L 547.1552734375 375 L 368 375 L 368 288 Z Z" stroke-miterlimit="10"/></g><g transform="translate(-14,2) scale(1,1)"><path fill="none" stroke="#000000" d="M 368 313 L 547.1552734375 313" stroke-miterlimit="10"/></g><g transform="translate(-14,2) scale(1,1)"><path fill="none" stroke="#000000" d="M 368 323 L 547.1552734375 323" stroke-miterlimit="10"/></g><g transform="translate(-14,2) scale(1,1)"><g><path fill="none" stroke="none"/><text fill="#000000" stroke="none" font-family="Arial" font-size="13px" font-style="normal" font-weight="bold" text-decoration="none" x="417.82861328125" y="307.5">ShoppingCart</text></g></g><g transform="translate(-14,2) scale(1,1)"><g><path fill="none" stroke="none"/><text fill="#000000" stroke="none" font-family="Arial" font-size="13px" font-style="normal" font-weight="normal" text-decoration="none" x="373" y="340.5">+AddBook(Book)</text></g></g><g transform="translate(-14,2) scale(1,1)"><g><path fill="none" stroke="none"/><text fill="#000000" stroke="none" font-family="Arial" font-size="13px" font-style="normal" font-weight="normal" text-decoration="none" x="373" y="355.5">+RemoveBook(Book)</text></g></g><g transform="translate(-14,2) scale(1,1)"><path fill="none" stroke="#000000" d="M 431 287 L 346 145" stroke-miterlimit="10"/></g><g transform="translate(-14,2) scale(1,1)"><path fill="#FFFFFF" stroke="none" d="M 422.16850612570505 280.4422018978707 L 431 287 L 429.39225430114647 276.11812728581066 L 419.7006485090404 268.12343633274986"/></g><g transform="translate(-14,2) scale(1,1)"><path fill="none" stroke="#000000" d="M 422.16850612570505 280.4422018978707 L 431 287 L 429.39225430114647 276.11812728581066 L 419.7006485090404 268.12343633274986 L 422.16850612570505 280.4422018978707" stroke-miterlimit="10"/></g><g transform="translate(-14,2) scale(1,1)"><g><path fill="none" stroke="none"/><text fill="#000000" stroke="none" font-family="Arial" font-size="13px" font-style="normal" font-weight="normal" text-decoration="none" x="426.5" y="268.5">1</text></g></g><g transform="translate(-14,2) scale(1,1)"><g><path fill="none" stroke="none"/><text fill="#000000" stroke="none" font-family="Arial" font-size="13px" font-style="normal" font-weight="normal" text-decoration="none" x="363.5" y="163.5">1</text></g></g><g transform="translate(-14,2) scale(1,1)"><rect fill="#C0C0C0" stroke="none" x="391" y="431" width="121.66455078125" height="44" opacity="0.2"/></g><g transform="translate(-14,2) scale(1,1)"><rect fill="#ffffff" stroke="none" x="384" y="424" width="121.66455078125" height="44"/></g><g transform="translate(-14,2) scale(1,1)"><path fill="none" stroke="#000000" d="M 384 424 L 505.66455078125 424 L 505.66455078125 468 L 384 468 L 384 424 Z Z" stroke-miterlimit="10"/></g><g transform="translate(-14,2) scale(1,1)"><path fill="none" stroke="#000000" d="M 384 449 L 505.66455078125 449" stroke-miterlimit="10"/></g><g transform="translate(-14,2) scale(1,1)"><path fill="none" stroke="#000000" d="M 384 459 L 505.66455078125 459" stroke-miterlimit="10"/></g><g transform="translate(-14,2) scale(1,1)"><g><path fill="none" stroke="none"/><text fill="#000000" stroke="none" font-family="Arial" font-size="13px" font-style="normal" font-weight="bold" text-decoration="none" x="392.44189453125" y="443.5">ShoppingCartItem</text></g></g><g transform="translate(-14,2) scale(1,1)"><path fill="none" stroke="#000000" d="M 447 423 L 452 376" stroke-miterlimit="10"/></g><g transform="translate(-14,2) scale(1,1)"><path fill="#000000" stroke="none" d="M 455.11082850910805 386.5509594818159 L 452 376 L 446.73903293628223 385.6603429315153 L 449.6727067989425 397.8765560899405"/></g><g transform="translate(-14,2) scale(1,1)"><path fill="none" stroke="#000000" d="M 455.11082850910805 386.5509594818159 L 452 376 L 446.73903293628223 385.6603429315153 L 449.6727067989425 397.8765560899405 L 455.11082850910805 386.5509594818159" stroke-miterlimit="10"/></g><g transform="translate(-14,2) scale(1,1)"><g><path fill="none" stroke="none"/><text fill="#000000" stroke="none" font-family="Arial" font-size="13px" font-style="normal" font-weight="normal" text-decoration="none" x="458.220458984375" y="408.5">*</text></g></g><g transform="translate(-14,2) scale(1,1)"><g><path fill="none" stroke="none"/><text fill="#000000" stroke="none" font-family="Arial" font-size="13px" font-style="normal" font-weight="normal" text-decoration="none" x="458.5" y="404.5">1</text></g></g><g transform="translate(-14,2) scale(1,1)"><rect fill="#C0C0C0" stroke="none" x="399" y="671" width="153.87255859375" height="175" opacity="0.2"/></g><g transform="translate(-14,2) scale(1,1)"><rect fill="#ffffff" stroke="none" x="392" y="664" width="153.87255859375" height="175"/></g><g transform="translate(-14,2) scale(1,1)"><path fill="none" stroke="#000000" d="M 392 664 L 545.87255859375 664 L 545.87255859375 839 L 392 839 L 392 664 Z Z" stroke-miterlimit="10"/></g><g transform="translate(-14,2) scale(1,1)"><path fill="none" stroke="#000000" d="M 392 689 L 545.87255859375 689" stroke-miterlimit="10"/></g><g transform="translate(-14,2) scale(1,1)"><path fill="none" stroke="#000000" d="M 392 772 L 545.87255859375 772" stroke-miterlimit="10"/></g><g transform="translate(-14,2) scale(1,1)"><g><path fill="none" stroke="none"/><text fill="#000000" stroke="none" font-family="Arial" font-size="13px" font-style="normal" font-weight="bold" text-decoration="none" x="454.120849609375" y="683.5">Book</text></g></g><g transform="translate(-14,2) scale(1,1)"><g><path fill="none" stroke="none"/><text fill="#000000" stroke="none" font-family="Arial" font-size="13px" font-style="normal" font-weight="normal" text-decoration="none" x="397" y="706.5">+title</text></g></g><g transform="translate(-14,2) scale(1,1)"><g><path fill="none" stroke="none"/><text fill="#000000" stroke="none" font-family="Arial" font-size="13px" font-style="normal" font-weight="normal" text-decoration="none" x="397" y="721.5">+author</text></g></g><g transform="translate(-14,2) scale(1,1)"><g><path fill="none" stroke="none"/><text fill="#000000" stroke="none" font-family="Arial" font-size="13px" font-style="normal" font-weight="normal" text-decoration="none" x="397" y="736.5">+keywords</text></g></g><g transform="translate(-14,2) scale(1,1)"><g><path fill="none" stroke="none"/><text fill="#000000" stroke="none" font-family="Arial" font-size="13px" font-style="normal" font-weight="normal" text-decoration="none" x="397" y="751.5">+categories</text></g></g><g transform="translate(-14,2) scale(1,1)"><g><path fill="none" stroke="none"/><text fill="#000000" stroke="none" font-family="Arial" font-size="13px" font-style="normal" font-weight="normal" text-decoration="none" x="397" y="766.5">+price</text></g></g><g transform="translate(-14,2) scale(1,1)"><path fill="none" stroke="#000000" d="M 446 469 L 461 663" stroke-miterlimit="10"/></g><g transform="translate(-14,2) scale(1,1)"><path fill="#FFFFFF" stroke="none" d="M 456.0195735190212 653.1920770767932 L 461 663 L 464.41355547045333 652.5430578537444 L 459.304031039343 641.0654681088361"/></g><g transform="translate(-14,2) scale(1,1)"><path fill="none" stroke="#000000" d="M 456.0195735190212 653.1920770767932 L 461 663 L 464.41355547045333 652.5430578537444 L 459.304031039343 641.0654681088361 L 456.0195735190212 653.1920770767932" stroke-miterlimit="10"/></g><g transform="translate(-14,2) scale(1,1)"><g><path fill="none" stroke="none"/><text fill="#000000" stroke="none" font-family="Arial" font-size="13px" font-style="normal" font-weight="normal" text-decoration="none" x="432.220458984375" y="497.5">*</text></g></g><g transform="translate(-14,2) scale(1,1)"><g><path fill="none" stroke="none"/><text fill="#000000" stroke="none" font-family="Arial" font-size="13px" font-style="normal" font-weight="normal" text-decoration="none" x="442.5" y="648.5">1</text></g></g><g transform="translate(-14,2) scale(1,1)"><rect fill="#C0C0C0" stroke="none" x="215" y="455" width="85.451171875" height="44" opacity="0.2"/></g><g transform="translate(-14,2) scale(1,1)"><rect fill="#ffffff" stroke="none" x="208" y="448" width="85.451171875" height="44"/></g><g transform="translate(-14,2) scale(1,1)"><path fill="none" stroke="#000000" d="M 208 448 L 293.451171875 448 L 293.451171875 492 L 208 492 L 208 448 Z Z" stroke-miterlimit="10"/></g><g transform="translate(-14,2) scale(1,1)"><path fill="none" stroke="#000000" d="M 208 473 L 293.451171875 473" stroke-miterlimit="10"/></g><g transform="translate(-14,2) scale(1,1)"><path fill="none" stroke="#000000" d="M 208 483 L 293.451171875 483" stroke-miterlimit="10"/></g><g transform="translate(-14,2) scale(1,1)"><g><path fill="none" stroke="none"/><text fill="#000000" stroke="none" font-family="Arial" font-size="13px" font-style="normal" font-weight="bold" text-decoration="none" x="215.696044921875" y="467.5">WishlistItem</text></g></g><g transform="translate(-14,2) scale(1,1)"><path fill="none" stroke="#000000" d="M 246 341 L 249 447" stroke-miterlimit="10"/></g><g transform="translate(-14,2) scale(1,1)"><path fill="#000000" stroke="none" d="M 250.49534061301065 351.0395175567861 L 246 341 L 242.07967488695826 351.277696775448 L 246.62239229221356 362.9911943248791"/></g><g transform="translate(-14,2) scale(1,1)"><path fill="none" stroke="#000000" d="M 250.49534061301065 351.0395175567861 L 246 341 L 242.07967488695826 351.277696775448 L 246.62239229221356 362.9911943248791 L 250.49534061301065 351.0395175567861" stroke-miterlimit="10"/></g><g transform="translate(-14,2) scale(1,1)"><g><path fill="none" stroke="none"/><text fill="#000000" stroke="none" font-family="Arial" font-size="13px" font-style="normal" font-weight="normal" text-decoration="none" x="230.5" y="368.5">1</text></g></g><g transform="translate(-14,2) scale(1,1)"><g><path fill="none" stroke="none"/><text fill="#000000" stroke="none" font-family="Arial" font-size="13px" font-style="normal" font-weight="normal" text-decoration="none" x="232.220458984375" y="431.5">*</text></g></g><g transform="translate(-14,2) scale(1,1)"><path fill="none" stroke="#000000" d="M 268 493 L 400 663" stroke-miterlimit="10"/></g><g transform="translate(-14,2) scale(1,1)"><path fill="#FFFFFF" stroke="none" d="M 390.4423637320377 657.5546727399236 L 400 663 L 397.0921584141893 652.3913027514294 L 386.5074639981585 645.6232490885375"/></g><g transform="translate(-14,2) scale(1,1)"><path fill="none" stroke="#000000" d="M 390.4423637320377 657.5546727399236 L 400 663 L 397.0921584141893 652.3913027514294 L 386.5074639981585 645.6232490885375 L 390.4423637320377 657.5546727399236" stroke-miterlimit="10"/></g><g transform="translate(-14,2) scale(1,1)"><g><path fill="none" stroke="none"/><text fill="#000000" stroke="none" font-family="Arial" font-size="13px" font-style="normal" font-weight="normal" text-decoration="none" x="268.220458984375" y="523.5">*</text></g></g><g transform="translate(-14,2) scale(1,1)"><g><path fill="none" stroke="none"/><text fill="#000000" stroke="none" font-family="Arial" font-size="13px" font-style="normal" font-weight="normal" text-decoration="none" x="372.5" y="659.5">1</text></g></g><g transform="translate(-14,2) scale(1,1)"><rect fill="#C0C0C0" stroke="none" x="223" y="303" width="58.72119140625" height="44" opacity="0.2"/></g><g transform="translate(-14,2) scale(1,1)"><rect fill="#ffffff" stroke="none" x="216" y="296" width="58.72119140625" height="44"/></g><g transform="translate(-14,2) scale(1,1)"><path fill="none" stroke="#000000" d="M 216 296 L 274.72119140625 296 L 274.72119140625 340 L 216 340 L 216 296 Z Z" stroke-miterlimit="10"/></g><g transform="translate(-14,2) scale(1,1)"><path fill="none" stroke="#000000" d="M 216 321 L 274.72119140625 321" stroke-miterlimit="10"/></g><g transform="translate(-14,2) scale(1,1)"><path fill="none" stroke="#000000" d="M 216 331 L 274.72119140625 331" stroke-miterlimit="10"/></g><g transform="translate(-14,2) scale(1,1)"><g><path fill="none" stroke="none"/><text fill="#000000" stroke="none" font-family="Arial" font-size="13px" font-style="normal" font-weight="bold" text-decoration="none" x="222.972412109375" y="315.5">Wishlist</text></g></g><g transform="translate(-14,2) scale(1,1)"><path fill="none" stroke="#000000" d="M 238 295 L 215 217" stroke-miterlimit="10"/></g><g transform="translate(-14,2) scale(1,1)"><path fill="#FFFFFF" stroke="none" d="M 221.91197071791854 225.55714092408422 L 215 217 L 213.83668899101417 227.9383137409919 L 221.2223044310839 238.10172807063236"/></g><g transform="translate(-14,2) scale(1,1)"><path fill="none" stroke="#000000" d="M 221.91197071791854 225.55714092408422 L 215 217 L 213.83668899101417 227.9383137409919 L 221.2223044310839 238.10172807063236 L 221.91197071791854 225.55714092408422" stroke-miterlimit="10"/></g><g transform="translate(-14,2) scale(1,1)"><g><path fill="none" stroke="none"/><text fill="#000000" stroke="none" font-family="Arial" font-size="13px" font-style="normal" font-weight="normal" text-decoration="none" x="240.220458984375" y="276.5">*</text></g></g><g transform="translate(-14,2) scale(1,1)"><g><path fill="none" stroke="none"/><text fill="#000000" stroke="none" font-family="Arial" font-size="13px" font-style="normal" font-weight="normal" text-decoration="none" x="229.5" y="240.5">1</text></g></g><g transform="translate(-14,2) scale(1,1)"><path fill="#C0C0C0" stroke="none" d="M 897.49267578125 258.5 C 897.49267578125 252.1487248 902.64140058125 247 908.99267578125 247 C 915.34395098125 247 920.49267578125 252.1487248 920.49267578125 258.5 C 920.49267578125 264.8512752 915.34395098125 270 908.99267578125 270 C 902.64140058125 270 897.49267578125 264.8512752 897.49267578125 258.5 Z" opacity="0.2"/></g><g transform="translate(-14,2) scale(1,1)"><path fill="#ffffff" stroke="none" d="M 890.49267578125 251.5 C 890.49267578125 245.1487248 895.64140058125 240 901.99267578125 240 C 908.34395098125 240 913.49267578125 245.1487248 913.49267578125 251.5 C 913.49267578125 257.8512752 908.34395098125 263 901.99267578125 263 C 895.64140058125 263 890.49267578125 257.8512752 890.49267578125 251.5 Z"/></g><g transform="translate(-14,2) scale(1,1)"><path fill="none" stroke="#000000" d="M 890.49267578125 251.5 C 890.49267578125 245.1487248 895.64140058125 240 901.99267578125 240 C 908.34395098125 240 913.49267578125 245.1487248 913.49267578125 251.5 C 913.49267578125 257.8512752 908.34395098125 263 901.99267578125 263 C 895.64140058125 263 890.49267578125 257.8512752 890.49267578125 251.5 Z" stroke-miterlimit="10"/></g><g transform="translate(-14,2) scale(1,1)"><g><path fill="none" stroke="none"/><text fill="#000000" stroke="none" font-family="Arial" font-size="13px" font-style="normal" font-weight="bold" text-decoration="none" x="859.726806640625" y="282.5">OrderPayment</text></g></g><g transform="translate(-14,2) scale(1,1)"><rect fill="#C0C0C0" stroke="none" x="623" y="71" width="142.3134765625" height="72" opacity="0.2"/></g><g transform="translate(-14,2) scale(1,1)"><rect fill="#ffffff" stroke="none" x="616" y="64" width="142.3134765625" height="72"/></g><g transform="translate(-14,2) scale(1,1)"><path fill="none" stroke="#000000" d="M 616 64 L 758.3134765625 64 L 758.3134765625 136 L 616 136 L 616 64 Z Z" stroke-miterlimit="10"/></g><g transform="translate(-14,2) scale(1,1)"><path fill="none" stroke="#000000" d="M 616 89 L 758.3134765625 89" stroke-miterlimit="10"/></g><g transform="translate(-14,2) scale(1,1)"><path fill="none" stroke="#000000" d="M 616 99 L 758.3134765625 99" stroke-miterlimit="10"/></g><g transform="translate(-14,2) scale(1,1)"><g><path fill="none" stroke="none"/><text fill="#000000" stroke="none" font-family="Arial" font-size="13px" font-style="normal" font-weight="bold" text-decoration="none" x="670.541748046875" y="83.5">Order</text></g></g><g transform="translate(-14,2) scale(1,1)"><g><path fill="none" stroke="none"/><text fill="#000000" stroke="none" font-family="Arial" font-size="13px" font-style="normal" font-weight="normal" text-decoration="none" x="621" y="116.5">+Pay(PaymentMethod)</text></g></g><g transform="translate(-14,2) scale(1,1)"><g><path fill="none" stroke="none"/><text fill="#000000" stroke="none" font-family="Arial" font-size="13px" font-style="normal" font-weight="normal" text-decoration="none" x="621" y="131.5">+Cancel()</text></g></g><g transform="translate(-14,2) scale(1,1)"><rect fill="#C0C0C0" stroke="none" x="887" y="471" width="137.603515625" height="44" opacity="0.2"/></g><g transform="translate(-14,2) scale(1,1)"><rect fill="#ffffff" stroke="none" x="880" y="464" width="137.603515625" height="44"/></g><g transform="translate(-14,2) scale(1,1)"><path fill="none" stroke="#000000" d="M 880 464 L 1017.603515625 464 L 1017.603515625 508 L 880 508 L 880 464 Z Z" stroke-miterlimit="10"/></g><g transform="translate(-14,2) scale(1,1)"><path fill="none" stroke="#000000" d="M 880 489 L 1017.603515625 489" stroke-miterlimit="10"/></g><g transform="translate(-14,2) scale(1,1)"><path fill="none" stroke="#000000" d="M 880 499 L 1017.603515625 499" stroke-miterlimit="10"/></g><g transform="translate(-14,2) scale(1,1)"><g><path fill="none" stroke="none"/><text fill="#000000" stroke="none" font-family="Arial" font-size="13px" font-style="normal" font-weight="bold" text-decoration="none" x="892.447265625" y="483.5">CardOrderPayment</text></g></g><g transform="translate(-14,2) scale(1,1)"><rect fill="#C0C0C0" stroke="none" x="991" y="415" width="143.38623046875" height="44" opacity="0.2"/></g><g transform="translate(-14,2) scale(1,1)"><rect fill="#ffffff" stroke="none" x="984" y="408" width="143.38623046875" height="44"/></g><g transform="translate(-14,2) scale(1,1)"><path fill="none" stroke="#000000" d="M 984 408 L 1127.38623046875 408 L 1127.38623046875 452 L 984 452 L 984 408 Z Z" stroke-miterlimit="10"/></g><g transform="translate(-14,2) scale(1,1)"><path fill="none" stroke="#000000" d="M 984 433 L 1127.38623046875 433" stroke-miterlimit="10"/></g><g transform="translate(-14,2) scale(1,1)"><path fill="none" stroke="#000000" d="M 984 443 L 1127.38623046875 443" stroke-miterlimit="10"/></g><g transform="translate(-14,2) scale(1,1)"><g><path fill="none" stroke="none"/><text fill="#000000" stroke="none" font-family="Arial" font-size="13px" font-style="normal" font-weight="bold" text-decoration="none" x="992.832275390625" y="427.5">InvoiceOrderPayment</text></g></g><g transform="translate(-14,2) scale(1,1)"><path fill="none" stroke="#000000" d="M 868 239 L 735 137" stroke-miterlimit="10"/></g><g transform="translate(-14,2) scale(1,1)"><path fill="#000000" stroke="none" d="M 745.6259180273568 139.84426898796414 L 735 137 L 740.5024568045683 146.5248605823844 L 752.4572271214679 150.38824937135126"/></g><g transform="translate(-14,2) scale(1,1)"><path fill="none" stroke="#000000" d="M 745.6259180273568 139.84426898796414 L 735 137 L 740.5024568045683 146.5248605823844 L 752.4572271214679 150.38824937135126 L 745.6259180273568 139.84426898796414" stroke-miterlimit="10"/></g><g transform="translate(-14,2) scale(1,1)"><g><path fill="none" stroke="none"/><text fill="#000000" stroke="none" font-family="Arial" font-size="13px" font-style="normal" font-weight="normal" text-decoration="none" x="847.5" y="221.5">0..1</text></g></g><g transform="translate(-14,2) scale(1,1)"><g><path fill="none" stroke="none"/><text fill="#000000" stroke="none" font-family="Arial" font-size="13px" font-style="normal" font-weight="normal" text-decoration="none" x="755.5" y="146.5">1</text></g></g><g transform="translate(-14,2) scale(1,1)"><rect fill="#C0C0C0" stroke="none" x="527" y="207" width="132.53173828125" height="44" opacity="0.2"/></g><g transform="translate(-14,2) scale(1,1)"><rect fill="#ffffff" stroke="none" x="520" y="200" width="132.53173828125" height="44"/></g><g transform="translate(-14,2) scale(1,1)"><path fill="none" stroke="#000000" d="M 520 200 L 652.53173828125 200 L 652.53173828125 244 L 520 244 L 520 200 Z Z" stroke-miterlimit="10"/></g><g transform="translate(-14,2) scale(1,1)"><path fill="none" stroke="#000000" d="M 520 225 L 652.53173828125 225" stroke-miterlimit="10"/></g><g transform="translate(-14,2) scale(1,1)"><path fill="none" stroke="#000000" d="M 520 235 L 652.53173828125 235" stroke-miterlimit="10"/></g><g transform="translate(-14,2) scale(1,1)"><g><path fill="none" stroke="none"/><text fill="#000000" stroke="none" font-family="Arial" font-size="13px" font-style="normal" font-weight="bold" text-decoration="none" x="528.46728515625" y="219.5">OrderPostalNumber</text></g></g><g transform="translate(-14,2) scale(1,1)"><path fill="none" stroke="#000000" d="M 605 199 L 656 137" stroke-miterlimit="10"/></g><g transform="translate(-14,2) scale(1,1)"><path fill="#000000" stroke="none" d="M 652.7949191640305 147.52271147731898 L 656 137 L 646.2929849645532 142.17434624871666 L 642.0240481393513 153.99037285020046"/></g><g transform="translate(-14,2) scale(1,1)"><path fill="none" stroke="#000000" d="M 652.7949191640305 147.52271147731898 L 656 137 L 646.2929849645532 142.17434624871666 L 642.0240481393513 153.99037285020046 L 652.7949191640305 147.52271147731898" stroke-miterlimit="10"/></g><g transform="translate(-14,2) scale(1,1)"><g><path fill="none" stroke="none"/><text fill="#000000" stroke="none" font-family="Arial" font-size="13px" font-style="normal" font-weight="normal" text-decoration="none" x="617.5" y="196.5">0..1</text></g></g><g transform="translate(-14,2) scale(1,1)"><g><path fill="none" stroke="none"/><text fill="#000000" stroke="none" font-family="Arial" font-size="13px" font-style="normal" font-weight="normal" text-decoration="none" x="647.5" y="167.5">1</text></g></g><g transform="translate(-14,2) scale(1,1)"><rect fill="#C0C0C0" stroke="none" x="591" y="383" width="89.57080078125" height="57" opacity="0.2"/></g><g transform="translate(-14,2) scale(1,1)"><rect fill="#ffffff" stroke="none" x="584" y="376" width="89.57080078125" height="57"/></g><g transform="translate(-14,2) scale(1,1)"><path fill="none" stroke="#000000" d="M 584 376 L 673.57080078125 376 L 673.57080078125 433 L 584 433 L 584 376 Z Z" stroke-miterlimit="10"/></g><g transform="translate(-14,2) scale(1,1)"><path fill="none" stroke="#000000" d="M 584 401 L 673.57080078125 401" stroke-miterlimit="10"/></g><g transform="translate(-14,2) scale(1,1)"><path fill="none" stroke="#000000" d="M 584 411 L 673.57080078125 411" stroke-miterlimit="10"/></g><g transform="translate(-14,2) scale(1,1)"><g><path fill="none" stroke="none"/><text fill="#000000" stroke="none" font-family="Arial" font-size="13px" font-style="normal" font-weight="bold" text-decoration="none" x="599.529052734375" y="395.5">OrderItem</text></g></g><g transform="translate(-14,2) scale(1,1)"><g><path fill="none" stroke="none"/><text fill="#000000" stroke="none" font-family="Arial" font-size="13px" font-style="normal" font-weight="normal" text-decoration="none" x="589" y="428.5">+Return()</text></g></g><g transform="translate(-14,2) scale(1,1)"><path fill="none" stroke="#000000" d="M 634 375 L 680 137" stroke-miterlimit="10"/></g><g transform="translate(-14,2) scale(1,1)"><path fill="#000000" stroke="none" d="M 682.2045049370741 147.77683432100613 L 680 137 L 673.938447762057 146.17919301827172 L 675.8251620853807 158.60024834085613"/></g><g transform="translate(-14,2) scale(1,1)"><path fill="none" stroke="#000000" d="M 682.2045049370741 147.77683432100613 L 680 137 L 673.938447762057 146.17919301827172 L 675.8251620853807 158.60024834085613 L 682.2045049370741 147.77683432100613" stroke-miterlimit="10"/></g><g transform="translate(-14,2) scale(1,1)"><g><path fill="none" stroke="none"/><text fill="#000000" stroke="none" font-family="Arial" font-size="13px" font-style="normal" font-weight="normal" text-decoration="none" x="647.220458984375" y="362.5">*</text></g></g><g transform="translate(-14,2) scale(1,1)"><g><path fill="none" stroke="none"/><text fill="#000000" stroke="none" font-family="Arial" font-size="13px" font-style="normal" font-weight="normal" text-decoration="none" x="684.5" y="166.5">1</text></g></g><g transform="translate(-14,2) scale(1,1)"><rect fill="#C0C0C0" stroke="none" x="775" y="359" width="113.01904296875" height="44" opacity="0.2"/></g><g transform="translate(-14,2) scale(1,1)"><rect fill="#ffffff" stroke="none" x="768" y="352" width="113.01904296875" height="44"/></g><g transform="translate(-14,2) scale(1,1)"><path fill="none" stroke="#000000" d="M 768 352 L 881.01904296875 352 L 881.01904296875 396 L 768 396 L 768 352 Z Z" stroke-miterlimit="10"/></g><g transform="translate(-14,2) scale(1,1)"><path fill="none" stroke="#000000" d="M 768 377 L 881.01904296875 377" stroke-miterlimit="10"/></g><g transform="translate(-14,2) scale(1,1)"><path fill="none" stroke="#000000" d="M 768 387 L 881.01904296875 387" stroke-miterlimit="10"/></g><g transform="translate(-14,2) scale(1,1)"><g><path fill="none" stroke="none"/><text fill="#000000" stroke="none" font-family="Arial" font-size="13px" font-style="normal" font-weight="bold" text-decoration="none" x="775.74365234375" y="371.5">OrderItemReturn</text></g></g><g transform="translate(-14,2) scale(1,1)"><path fill="none" stroke="#000000" d="M 767 383 L 675 397" stroke-miterlimit="10"/></g><g transform="translate(-14,2) scale(1,1)"><path fill="#000000" stroke="none" d="M 684.4137235444399 391.30949834998194 L 675 397 L 685.68030005957 399.6327154494079 L 696.7496144214715 393.6902760662978"/></g><g transform="translate(-14,2) scale(1,1)"><path fill="none" stroke="#000000" d="M 684.4137235444399 391.30949834998194 L 675 397 L 685.68030005957 399.6327154494079 L 696.7496144214715 393.6902760662978 L 684.4137235444399 391.30949834998194" stroke-miterlimit="10"/></g><g transform="translate(-14,2) scale(1,1)"><g><path fill="none" stroke="none"/><text fill="#000000" stroke="none" font-family="Arial" font-size="13px" font-style="normal" font-weight="normal" text-decoration="none" x="732.5" y="379.5">0..1</text></g></g><g transform="translate(-14,2) scale(1,1)"><g><path fill="none" stroke="none"/><text fill="#000000" stroke="none" font-family="Arial" font-size="13px" font-style="normal" font-weight="normal" text-decoration="none" x="690.5" y="387.5">1</text></g></g><g transform="translate(-14,2) scale(1,1)"><rect fill="#C0C0C0" stroke="none" x="751" y="495" width="82.66455078125" height="57" opacity="0.2"/></g><g transform="translate(-14,2) scale(1,1)"><rect fill="#ffffff" stroke="none" x="744" y="488" width="82.66455078125" height="57"/></g><g transform="translate(-14,2) scale(1,1)"><path fill="none" stroke="#000000" d="M 744 488 L 826.66455078125 488 L 826.66455078125 545 L 744 545 L 744 488 Z Z" stroke-miterlimit="10"/></g><g transform="translate(-14,2) scale(1,1)"><path fill="none" stroke="#000000" d="M 744 513 L 826.66455078125 513" stroke-miterlimit="10"/></g><g transform="translate(-14,2) scale(1,1)"><path fill="none" stroke="#000000" d="M 744 536 L 826.66455078125 536" stroke-miterlimit="10"/></g><g transform="translate(-14,2) scale(1,1)"><g><path fill="none" stroke="none"/><text fill="#000000" stroke="none" font-family="Arial" font-size="13px" font-style="normal" font-weight="bold" text-decoration="none" x="751.010498046875" y="507.5">MiniCatalog</text></g></g><g transform="translate(-14,2) scale(1,1)"><g><path fill="none" stroke="none"/><text fill="#000000" stroke="none" font-family="Arial" font-size="13px" font-style="normal" font-weight="normal" text-decoration="none" x="749" y="530.5">+XML</text></g></g><g transform="translate(-14,2) scale(1,1)"><path fill="#C0C0C0" stroke="none" d="M 326.7099609375 114.5 C 326.7099609375 108.1487248 331.8586857375 103 338.2099609375 103 C 344.5612361375 103 349.7099609375 108.1487248 349.7099609375 114.5 C 349.7099609375 120.8512752 344.5612361375 126 338.2099609375 126 C 331.8586857375 126 326.7099609375 120.8512752 326.7099609375 114.5 Z" opacity="0.2"/></g><g transform="translate(-14,2) scale(1,1)"><path fill="#ffffff" stroke="none" d="M 319.7099609375 107.5 C 319.7099609375 101.1487248 324.8586857375 96 331.2099609375 96 C 337.5612361375 96 342.7099609375 101.1487248 342.7099609375 107.5 C 342.7099609375 113.8512752 337.5612361375 119 331.2099609375 119 C 324.8586857375 119 319.7099609375 113.8512752 319.7099609375 107.5 Z"/></g><g transform="translate(-14,2) scale(1,1)"><path fill="none" stroke="#000000" d="M 319.7099609375 107.5 C 319.7099609375 101.1487248 324.8586857375 96 331.2099609375 96 C 337.5612361375 96 342.7099609375 101.1487248 342.7099609375 107.5 C 342.7099609375 113.8512752 337.5612361375 119 331.2099609375 119 C 324.8586857375 119 319.7099609375 113.8512752 319.7099609375 107.5 Z" stroke-miterlimit="10"/></g><g transform="translate(-14,2) scale(1,1)"><g><path fill="none" stroke="none"/><text fill="#000000" stroke="none" font-family="Arial" font-size="13px" font-style="normal" font-weight="bold" text-decoration="none" x="317.486328125" y="138.5">User</text></g></g><g transform="translate(-14,2) scale(1,1)"><rect fill="#C0C0C0" stroke="none" x="423" y="159" width="113.01904296875" height="44" opacity="0.2"/></g><g transform="translate(-14,2) scale(1,1)"><rect fill="#ffffff" stroke="none" x="416" y="152" width="113.01904296875" height="44"/></g><g transform="translate(-14,2) scale(1,1)"><path fill="none" stroke="#000000" d="M 416 152 L 529.01904296875 152 L 529.01904296875 196 L 416 196 L 416 152 Z Z" stroke-miterlimit="10"/></g><g transform="translate(-14,2) scale(1,1)"><path fill="none" stroke="#000000" d="M 416 177 L 529.01904296875 177" stroke-miterlimit="10"/></g><g transform="translate(-14,2) scale(1,1)"><path fill="none" stroke="#000000" d="M 416 187 L 529.01904296875 187" stroke-miterlimit="10"/></g><g transform="translate(-14,2) scale(1,1)"><g><path fill="none" stroke="none"/><text fill="#000000" stroke="none" font-family="Arial" font-size="13px" font-style="normal" font-weight="bold" text-decoration="none" x="424.4609375" y="171.5">AnonymousUser</text></g></g><g transform="translate(-14,2) scale(1,1)"><rect fill="#C0C0C0" stroke="none" x="175" y="15" width="70.4072265625" height="44" opacity="0.2"/></g><g transform="translate(-14,2) scale(1,1)"><rect fill="#ffffff" stroke="none" x="168" y="8" width="70.4072265625" height="44"/></g><g transform="translate(-14,2) scale(1,1)"><path fill="none" stroke="#000000" d="M 168 8 L 238.4072265625 8 L 238.4072265625 52 L 168 52 L 168 8 Z Z" stroke-miterlimit="10"/></g><g transform="translate(-14,2) scale(1,1)"><path fill="none" stroke="#000000" d="M 168 33 L 238.4072265625 33" stroke-miterlimit="10"/></g><g transform="translate(-14,2) scale(1,1)"><path fill="none" stroke="#000000" d="M 168 43 L 238.4072265625 43" stroke-miterlimit="10"/></g><g transform="translate(-14,2) scale(1,1)"><g><path fill="none" stroke="none"/><text fill="#000000" stroke="none" font-family="Arial" font-size="13px" font-style="normal" font-weight="bold" text-decoration="none" x="174.299560546875" y="27.5">BankCard</text></g></g><g transform="translate(-14,2) scale(1,1)"><path fill="none" stroke="#000000" d="M 203 53 L 204 143" stroke-miterlimit="10"/></g><g transform="translate(-14,2) scale(1,1)"><path fill="#FFFFFF" stroke="none" d="M 199.6778304268117 132.8847219424968 L 204 143 L 208.09634629340837 132.7911828773124 L 203.7555706433218 121.00135789896126"/></g><g transform="translate(-14,2) scale(1,1)"><path fill="none" stroke="#000000" d="M 199.6778304268117 132.8847219424968 L 204 143 L 208.09634629340837 132.7911828773124 L 203.7555706433218 121.00135789896126 L 199.6778304268117 132.8847219424968" stroke-miterlimit="10"/></g><g transform="translate(-14,2) scale(1,1)"><g><path fill="none" stroke="none"/><text fill="#000000" stroke="none" font-family="Arial" font-size="13px" font-style="normal" font-weight="normal" text-decoration="none" x="187.220458984375" y="80.5">*</text></g></g><g transform="translate(-14,2) scale(1,1)"><g><path fill="none" stroke="none"/><text fill="#000000" stroke="none" font-family="Arial" font-size="13px" font-style="normal" font-weight="normal" text-decoration="none" x="187.5" y="127.5">1</text></g></g><g transform="translate(-14,2) scale(1,1)"><rect fill="#C0C0C0" stroke="none" x="31" y="71" width="79.8017578125" height="44" opacity="0.2"/></g><g transform="translate(-14,2) scale(1,1)"><rect fill="#ffffff" stroke="none" x="24" y="64" width="79.8017578125" height="44"/></g><g transform="translate(-14,2) scale(1,1)"><path fill="none" stroke="#000000" d="M 24 64 L 103.8017578125 64 L 103.8017578125 108 L 24 108 L 24 64 Z Z" stroke-miterlimit="10"/></g><g transform="translate(-14,2) scale(1,1)"><path fill="none" stroke="#000000" d="M 24 89 L 103.8017578125 89" stroke-miterlimit="10"/></g><g transform="translate(-14,2) scale(1,1)"><path fill="none" stroke="#000000" d="M 24 99 L 103.8017578125 99" stroke-miterlimit="10"/></g><g transform="translate(-14,2) scale(1,1)"><g><path fill="none" stroke="none"/><text fill="#000000" stroke="none" font-family="Arial" font-size="13px" font-style="normal" font-weight="bold" text-decoration="none" x="31.023193359375" y="83.5">Credentials</text></g></g><g transform="translate(-14,2) scale(1,1)"><rect fill="#C0C0C0" stroke="none" x="87" y="599" width="82.708984375" height="57" opacity="0.2"/></g><g transform="translate(-14,2) scale(1,1)"><rect fill="#ffffff" stroke="none" x="80" y="592" width="82.708984375" height="57"/></g><g transform="translate(-14,2) scale(1,1)"><path fill="none" stroke="#000000" d="M 80 592 L 162.708984375 592 L 162.708984375 649 L 80 649 L 80 592 Z Z" stroke-miterlimit="10"/></g><g transform="translate(-14,2) scale(1,1)"><path fill="none" stroke="#000000" d="M 80 617 L 162.708984375 617" stroke-miterlimit="10"/></g><g transform="translate(-14,2) scale(1,1)"><path fill="none" stroke="#000000" d="M 80 640 L 162.708984375 640" stroke-miterlimit="10"/></g><g transform="translate(-14,2) scale(1,1)"><g><path fill="none" stroke="none"/><text fill="#000000" stroke="none" font-family="Arial" font-size="13px" font-style="normal" font-weight="bold" text-decoration="none" x="86.318603515625" y="611.5">UserReview</text></g></g><g transform="translate(-14,2) scale(1,1)"><g><path fill="none" stroke="none"/><text fill="#000000" stroke="none" font-family="Arial" font-size="13px" font-style="normal" font-weight="normal" text-decoration="none" x="85" y="634.5">+rating: 1..5</text></g></g><g transform="translate(-14,2) scale(1,1)"><rect fill="#C0C0C0" stroke="none" x="999" y="15" width="139.01904296875" height="44" opacity="0.2"/></g><g transform="translate(-14,2) scale(1,1)"><rect fill="#ffffff" stroke="none" x="992" y="8" width="139.01904296875" height="44"/></g><g transform="translate(-14,2) scale(1,1)"><path fill="none" stroke="#000000" d="M 992 8 L 1131.01904296875 8 L 1131.01904296875 52 L 992 52 L 992 8 Z Z" stroke-miterlimit="10"/></g><g transform="translate(-14,2) scale(1,1)"><path fill="none" stroke="#000000" d="M 992 33 L 1131.01904296875 33" stroke-miterlimit="10"/></g><g transform="translate(-14,2) scale(1,1)"><path fill="none" stroke="#000000" d="M 992 43 L 1131.01904296875 43" stroke-miterlimit="10"/></g><g transform="translate(-14,2) scale(1,1)"><g><path fill="none" stroke="none"/><text fill="#000000" stroke="none" font-family="Arial" font-size="13px" font-style="normal" font-weight="bold" text-decoration="none" x="1000.089599609375" y="27.5">CardPaymentMethod</text></g></g><g transform="translate(-14,2) scale(1,1)"><path fill="#C0C0C0" stroke="none" d="M 850.200439453125 66.5 C 850.200439453125 60.1487248 855.349164253125 55 861.700439453125 55 C 868.051714653125 55 873.200439453125 60.1487248 873.200439453125 66.5 C 873.200439453125 72.8512752 868.051714653125 78 861.700439453125 78 C 855.349164253125 78 850.200439453125 72.8512752 850.200439453125 66.5 Z" opacity="0.2"/></g><g transform="translate(-14,2) scale(1,1)"><path fill="#ffffff" stroke="none" d="M 843.200439453125 59.5 C 843.200439453125 53.1487248 848.349164253125 48 854.700439453125 48 C 861.051714653125 48 866.200439453125 53.1487248 866.200439453125 59.5 C 866.200439453125 65.8512752 861.051714653125 71 854.700439453125 71 C 848.349164253125 71 843.200439453125 65.8512752 843.200439453125 59.5 Z"/></g><g transform="translate(-14,2) scale(1,1)"><path fill="none" stroke="#000000" d="M 843.200439453125 59.5 C 843.200439453125 53.1487248 848.349164253125 48 854.700439453125 48 C 861.051714653125 48 866.200439453125 53.1487248 866.200439453125 59.5 C 866.200439453125 65.8512752 861.051714653125 71 854.700439453125 71 C 848.349164253125 71 843.200439453125 65.8512752 843.200439453125 59.5 Z" stroke-miterlimit="10"/></g><g transform="translate(-14,2) scale(1,1)"><g><path fill="none" stroke="none"/><text fill="#000000" stroke="none" font-family="Arial" font-size="13px" font-style="normal" font-weight="bold" text-decoration="none" x="807.369140625" y="90.5">PaymentMethod</text></g></g><g transform="translate(-14,2) scale(1,1)"><rect fill="#C0C0C0" stroke="none" x="983" y="231" width="154.1962890625" height="44" opacity="0.2"/></g><g transform="translate(-14,2) scale(1,1)"><rect fill="#ffffff" stroke="none" x="976" y="224" width="154.1962890625" height="44"/></g><g transform="translate(-14,2) scale(1,1)"><path fill="none" stroke="#000000" d="M 976 224 L 1130.1962890625 224 L 1130.1962890625 268 L 976 268 L 976 224 Z Z" stroke-miterlimit="10"/></g><g transform="translate(-14,2) scale(1,1)"><path fill="none" stroke="#000000" d="M 976 249 L 1130.1962890625 249" stroke-miterlimit="10"/></g><g transform="translate(-14,2) scale(1,1)"><path fill="none" stroke="#000000" d="M 976 259 L 1130.1962890625 259" stroke-miterlimit="10"/></g><g transform="translate(-14,2) scale(1,1)"><g><path fill="none" stroke="none"/><text fill="#000000" stroke="none" font-family="Arial" font-size="13px" font-style="normal" font-weight="bold" text-decoration="none" x="985.171875" y="243.5">InvoicePaymentMethod</text></g></g><g transform="translate(-14,2) scale(1,1)"><path fill="none" stroke="#000000" d="M 614 434 L 509 663" stroke-miterlimit="10"/></g><g transform="translate(-14,2) scale(1,1)"><path fill="#FFFFFF" stroke="none" d="M 509.40925458347886 652.0076157870141 L 509 663 L 517.0621761096198 655.5165972727992 L 518.1694105075276 643.0019523216779"/></g><g transform="translate(-14,2) scale(1,1)"><path fill="none" stroke="#000000" d="M 509.40925458347886 652.0076157870141 L 509 663 L 517.0621761096198 655.5165972727992 L 518.1694105075276 643.0019523216779 L 509.40925458347886 652.0076157870141" stroke-miterlimit="10"/></g><g transform="translate(-14,2) scale(1,1)"><g><path fill="none" stroke="none"/><text fill="#000000" stroke="none" font-family="Arial" font-size="13px" font-style="normal" font-weight="normal" text-decoration="none" x="590.220458984375" y="454.5">*</text></g></g><g transform="translate(-14,2) scale(1,1)"><g><path fill="none" stroke="none"/><text fill="#000000" stroke="none" font-family="Arial" font-size="13px" font-style="normal" font-weight="normal" text-decoration="none" x="502.5" y="644.5">1</text></g></g><g transform="translate(-14,2) scale(1,1)"><path fill="none" stroke="#000000" d="M 164 636 L 391 722" stroke-miterlimit="10"/></g><g transform="translate(-14,2) scale(1,1)"><path fill="#FFFFFF" stroke="none" d="M 380.00513387462655 722.3360340535054 L 391 722 L 382.98784364656694 714.4630675624534 L 370.4269471181576 714.2058037540156"/></g><g transform="translate(-14,2) scale(1,1)"><path fill="none" stroke="#000000" d="M 380.00513387462655 722.3360340535054 L 391 722 L 382.98784364656694 714.4630675624534 L 370.4269471181576 714.2058037540156 L 380.00513387462655 722.3360340535054" stroke-miterlimit="10"/></g><g transform="translate(-14,2) scale(1,1)"><g><path fill="none" stroke="none"/><text fill="#000000" stroke="none" font-family="Arial" font-size="13px" font-style="normal" font-weight="normal" text-decoration="none" x="176.220458984375" y="661.5">*</text></g></g><g transform="translate(-14,2) scale(1,1)"><g><path fill="none" stroke="none"/><text fill="#000000" stroke="none" font-family="Arial" font-size="13px" font-style="normal" font-weight="normal" text-decoration="none" x="362.5" y="732.5">1</text></g></g><g transform="translate(-14,2) scale(1,1)"><path fill="none" stroke="#000000" d="M 126 591 L 197 217" stroke-miterlimit="10"/></g><g transform="translate(-14,2) scale(1,1)"><path fill="#FFFFFF" stroke="none" d="M 199.24022932107292 227.76946482370434 L 197 217 L 190.96891973775226 226.19924295093492 L 192.89681250880128 238.61397354518763"/></g><g transform="translate(-14,2) scale(1,1)"><path fill="none" stroke="#000000" d="M 199.24022932107292 227.76946482370434 L 197 217 L 190.96891973775226 226.19924295093492 L 192.89681250880128 238.61397354518763 L 199.24022932107292 227.76946482370434" stroke-miterlimit="10"/></g><g transform="translate(-14,2) scale(1,1)"><g><path fill="none" stroke="none"/><text fill="#000000" stroke="none" font-family="Arial" font-size="13px" font-style="normal" font-weight="normal" text-decoration="none" x="139.220458984375" y="578.5">*</text></g></g><g transform="translate(-14,2) scale(1,1)"><g><path fill="none" stroke="none"/><text fill="#000000" stroke="none" font-family="Arial" font-size="13px" font-style="normal" font-weight="normal" text-decoration="none" x="201.5" y="246.5">1</text></g></g><g transform="translate(-14,2) scale(1,1)"><path fill="none" stroke="#000000" d="M 615 104 L 367 118" stroke-miterlimit="10"/></g><g transform="translate(-14,2) scale(1,1)"><path fill="#FFFFFF" stroke="none" d="M 376.9092640050974 113.224386230307 L 367 118 L 377.3837766554499 121.63003889369436 L 388.96502893119276 116.76003868936814"/></g><g transform="translate(-14,2) scale(1,1)"><path fill="none" stroke="#000000" d="M 376.9092640050974 113.224386230307 L 367 118 L 377.3837766554499 121.63003889369436 L 388.96502893119276 116.76003868936814 L 376.9092640050974 113.224386230307" stroke-miterlimit="10"/></g><g transform="translate(-14,2) scale(1,1)"><g><path fill="none" stroke="none"/><text fill="#000000" stroke="none" font-family="Arial" font-size="13px" font-style="normal" font-weight="normal" text-decoration="none" x="589.220458984375" y="98.5">*</text></g></g><g transform="translate(-14,2) scale(1,1)"><g><path fill="none" stroke="none"/><text fill="#000000" stroke="none" font-family="Arial" font-size="13px" font-style="normal" font-weight="normal" text-decoration="none" x="383.5" y="110.5">1</text></g></g><g transform="translate(-14,2) scale(1,1)"><path fill="none" stroke="#000000" d="M 98 109 L 151 145" stroke-miterlimit="10"/></g><g transform="translate(-14,2) scale(1,1)"><path fill="#FFFFFF" stroke="none" d="M 140.22800911468136 142.77194875134975 L 151 145 L 144.95852234486324 135.80758205135976 L 132.80123279194953 132.63857321717325"/></g><g transform="translate(-14,2) scale(1,1)"><path fill="none" stroke="#000000" d="M 140.22800911468136 142.77194875134975 L 151 145 L 144.95852234486324 135.80758205135976 L 132.80123279194953 132.63857321717325 L 140.22800911468136 142.77194875134975" stroke-miterlimit="10"/></g><g transform="translate(-14,2) scale(1,1)"><g><path fill="none" stroke="none"/><text fill="#000000" stroke="none" font-family="Arial" font-size="13px" font-style="normal" font-weight="normal" text-decoration="none" x="96.5" y="130.5">0..1</text></g></g><g transform="translate(-14,2) scale(1,1)"><g><path fill="none" stroke="none"/><text fill="#000000" stroke="none" font-family="Arial" font-size="13px" font-style="normal" font-weight="normal" text-decoration="none" x="122.5" y="149.5">1</text></g></g><g transform="translate(-14,2) scale(1,1)"><rect fill="#C0C0C0" stroke="none" x="695" y="647" width="91.3544921875" height="57" opacity="0.2"/></g><g transform="translate(-14,2) scale(1,1)"><rect fill="#ffffff" stroke="none" x="688" y="640" width="91.3544921875" height="57"/></g><g transform="translate(-14,2) scale(1,1)"><path fill="none" stroke="#000000" d="M 688 640 L 779.3544921875 640 L 779.3544921875 697 L 688 697 L 688 640 Z Z" stroke-miterlimit="10"/></g><g transform="translate(-14,2) scale(1,1)"><path fill="none" stroke="#000000" d="M 688 665 L 779.3544921875 665" stroke-miterlimit="10"/></g><g transform="translate(-14,2) scale(1,1)"><path fill="none" stroke="#000000" d="M 688 688 L 779.3544921875 688" stroke-miterlimit="10"/></g><g transform="translate(-14,2) scale(1,1)"><g><path fill="none" stroke="none"/><text fill="#000000" stroke="none" font-family="Arial" font-size="13px" font-style="normal" font-weight="bold" text-decoration="none" x="695.385009765625" y="659.5">EditorReview</text></g></g><g transform="translate(-14,2) scale(1,1)"><g><path fill="none" stroke="none"/><text fill="#000000" stroke="none" font-family="Arial" font-size="13px" font-style="normal" font-weight="normal" text-decoration="none" x="693" y="682.5">+isPublished</text></g></g><g transform="translate(-14,2) scale(1,1)"><path fill="none" stroke="#000000" d="M 687 682 L 547 726" stroke-miterlimit="10"/></g><g transform="translate(-14,2) scale(1,1)"><path fill="#FFFFFF" stroke="none" d="M 555.4330025783793 718.9371062932358 L 547 726 L 557.9572533437884 726.9688132740829 L 567.9878617718276 719.4038148717113"/></g><g transform="translate(-14,2) scale(1,1)"><path fill="none" stroke="#000000" d="M 555.4330025783793 718.9371062932358 L 547 726 L 557.9572533437884 726.9688132740829 L 567.9878617718276 719.4038148717113 L 555.4330025783793 718.9371062932358" stroke-miterlimit="10"/></g><g transform="translate(-14,2) scale(1,1)"><g><path fill="none" stroke="none"/><text fill="#000000" stroke="none" font-family="Arial" font-size="13px" font-style="normal" font-weight="normal" text-decoration="none" x="659.220458984375" y="682.5">*</text></g></g><g transform="translate(-14,2) scale(1,1)"><g><path fill="none" stroke="none"/><text fill="#000000" stroke="none" font-family="Arial" font-size="13px" font-style="normal" font-weight="normal" text-decoration="none" x="559.5" y="713.5">1</text></g></g><g transform="translate(-14,2) scale(1,1)"><rect fill="#C0C0C0" stroke="none" x="631" y="823" width="79.08447265625" height="44" opacity="0.2"/></g><g transform="translate(-14,2) scale(1,1)"><rect fill="#ffffff" stroke="none" x="624" y="816" width="79.08447265625" height="44"/></g><g transform="translate(-14,2) scale(1,1)"><path fill="none" stroke="#000000" d="M 624 816 L 703.08447265625 816 L 703.08447265625 860 L 624 860 L 624 816 Z Z" stroke-miterlimit="10"/></g><g transform="translate(-14,2) scale(1,1)"><path fill="none" stroke="#000000" d="M 624 841 L 703.08447265625 841" stroke-miterlimit="10"/></g><g transform="translate(-14,2) scale(1,1)"><path fill="none" stroke="#000000" d="M 624 851 L 703.08447265625 851" stroke-miterlimit="10"/></g><g transform="translate(-14,2) scale(1,1)"><g><path fill="none" stroke="none"/><text fill="#000000" stroke="none" font-family="Arial" font-size="13px" font-style="normal" font-weight="bold" text-decoration="none" x="630.667724609375" y="835.5">OuterSeller</text></g></g><g transform="translate(-14,2) scale(1,1)"><path fill="none" stroke="#000000" d="M 623 820 L 547 786" stroke-miterlimit="10"/></g><g transform="translate(-14,2) scale(1,1)"><path fill="#FFFFFF" stroke="none" d="M 612.0043007211176 819.692433148106 L 623 820 L 615.4423490826566 812.0073838693718 L 602.9179984583118 811.0159466787184"/></g><g transform="translate(-14,2) scale(1,1)"><path fill="none" stroke="#000000" d="M 612.0043007211176 819.692433148106 L 623 820 L 615.4423490826566 812.0073838693718 L 602.9179984583118 811.0159466787184 L 612.0043007211176 819.692433148106" stroke-miterlimit="10"/></g><g transform="translate(-14,2) scale(1,1)"><g><path fill="none" stroke="none"/><text fill="#000000" stroke="none" font-family="Arial" font-size="13px" font-style="normal" font-weight="normal" text-decoration="none" x="597.5" y="805.5">0..1</text></g></g><g transform="translate(-14,2) scale(1,1)"><g><path fill="none" stroke="none"/><text fill="#000000" stroke="none" font-family="Arial" font-size="13px" font-style="normal" font-weight="normal" text-decoration="none" x="568.220458984375" y="789.5">*</text></g></g><g transform="translate(-14,2) scale(1,1)"><path fill="none" stroke="#000000" d="M 991 29 L 613 24 L 239 29" stroke-miterlimit="10"/></g><g transform="translate(-14,2) scale(1,1)"><path fill="#FFFFFF" stroke="none" d="M 249.10549484643133 24.655005879319287 L 239 29 L 249.21803874010632 33.07328912620829 L 260.99803423644886 28.705908633202554"/></g><g transform="translate(-14,2) scale(1,1)"><path fill="none" stroke="#000000" d="M 249.10549484643133 24.655005879319287 L 239 29 L 249.21803874010632 33.07328912620829 L 260.99803423644886 28.705908633202554 L 249.10549484643133 24.655005879319287" stroke-miterlimit="10"/></g><g transform="translate(-14,2) scale(1,1)"><path fill="none" stroke="#000000" d="M 258 154 L 295 137" stroke-miterlimit="10"/></g><g transform="translate(-14,2) scale(1,1)"><path fill="#FFFFFF" stroke="none" d="M 280.04577413886244 153.13601961123263 L 295 137 L 273.0158765977327 137.83565437465612"/></g><g transform="translate(-14,2) scale(1,1)"><path fill="none" stroke="#000000" d="M 280.04577413886244 153.13601961123263 L 295 137 L 273.0158765977327 137.83565437465612 L 280.04577413886244 153.13601961123263" stroke-miterlimit="10"/></g><g transform="translate(-14,2) scale(1,1)"><path fill="none" stroke="#000000" d="M 415 152 L 367 134" stroke-miterlimit="10"/></g><g transform="translate(-14,2) scale(1,1)"><path fill="#FFFFFF" stroke="none" d="M 388.9873387065212 133.25371814660014 L 367 134 L 383.0750972588421 149.0196953404111"/></g><g transform="translate(-14,2) scale(1,1)"><path fill="none" stroke="#000000" d="M 388.9873387065212 133.25371814660014 L 367 134 L 383.0750972588421 149.0196953404111 L 388.9873387065212 133.25371814660014" stroke-miterlimit="10"/></g><g transform="translate(-14,2) scale(1,1)"><path fill="none" stroke="#000000" d="M 1027 223 L 883 97" stroke-miterlimit="10"/></g><g transform="translate(-14,2) scale(1,1)"><path fill="#FFFFFF" stroke="none" d="M 903.8403581859448 104.04836652576523 L 883 97 L 892.7524108289812 116.72030636229493"/></g><g transform="translate(-14,2) scale(1,1)"><path fill="none" stroke="#000000" d="M 903.8403581859448 104.04836652576523 L 883 97 L 892.7524108289812 116.72030636229493 L 903.8403581859448 104.04836652576523" stroke-miterlimit="10"/></g><g transform="translate(-14,2) scale(1,1)"><path fill="none" stroke="#000000" d="M 991 44 L 910 61" stroke-miterlimit="10"/></g><g transform="translate(-14,2) scale(1,1)"><path fill="#FFFFFF" stroke="none" d="M 928.1626857430839 48.58561936309437 L 910 61 L 931.6212509860818 65.0646655209079"/></g><g transform="translate(-14,2) scale(1,1)"><path fill="none" stroke="#000000" d="M 928.1626857430839 48.58561936309437 L 910 61 L 931.6212509860818 65.0646655209079 L 928.1626857430839 48.58561936309437" stroke-miterlimit="10"/></g><g transform="translate(-14,2) scale(1,1)"><path fill="none" stroke="#000000" d="M 1034 407 L 924 289" stroke-miterlimit="10"/></g><g transform="translate(-14,2) scale(1,1)"><path fill="#FFFFFF" stroke="none" d="M 944.0176264199389 298.12658931429274 L 924 289 L 931.7011261915567 309.6080725780389"/></g><g transform="translate(-14,2) scale(1,1)"><path fill="none" stroke="#000000" d="M 944.0176264199389 298.12658931429274 L 924 289 L 931.7011261915567 309.6080725780389 L 944.0176264199389 298.12658931429274" stroke-miterlimit="10"/></g><g transform="translate(-14,2) scale(1,1)"><path fill="none" stroke="#000000" d="M 943 463 L 906 289" stroke-miterlimit="10"/></g><g transform="translate(-14,2) scale(1,1)"><path fill="#FFFFFF" stroke="none" d="M 918.4624483548545 307.12973747748663 L 906 289 L 901.992621430442 310.6319420533675"/></g><g transform="translate(-14,2) scale(1,1)"><path fill="none" stroke="#000000" d="M 918.4624483548545 307.12973747748663 L 906 289 L 901.992621430442 310.6319420533675 L 918.4624483548545 307.12973747748663" stroke-miterlimit="10"/></g><g transform="translate(-14,2) scale(1,1)"><rect fill="#C0C0C0" stroke="none" x="95" y="759" width="147.3662109375" height="117" opacity="0.2"/></g><g transform="translate(-14,2) scale(1,1)"><rect fill="#ffffff" stroke="none" x="88" y="752" width="147.3662109375" height="117"/></g><g transform="translate(-14,2) scale(1,1)"><path fill="none" stroke="#000000" d="M 88 752 L 235.3662109375 752 L 235.3662109375 869 L 88 869 L 88 752 Z Z" stroke-miterlimit="10"/></g><g transform="translate(-14,2) scale(1,1)"><path fill="none" stroke="#000000" d="M 88 777 L 235.3662109375 777" stroke-miterlimit="10"/></g><g transform="translate(-14,2) scale(1,1)"><path fill="none" stroke="#000000" d="M 88 787 L 235.3662109375 787" stroke-miterlimit="10"/></g><g transform="translate(-14,2) scale(1,1)"><g><path fill="none" stroke="none"/><text fill="#000000" stroke="none" font-family="Arial" font-size="13px" font-style="normal" font-weight="bold" text-decoration="none" x="106.03955078125" y="771.5">BookSearchBuilder</text></g></g><g transform="translate(-14,2) scale(1,1)"><g><path fill="none" stroke="none"/><text fill="#000000" stroke="none" font-family="Arial" font-size="13px" font-style="normal" font-weight="normal" text-decoration="none" x="93" y="804.5">+build()</text></g></g><g transform="translate(-14,2) scale(1,1)"><g><path fill="none" stroke="none"/><text fill="#000000" stroke="none" font-family="Arial" font-size="13px" font-style="normal" font-weight="normal" text-decoration="none" x="93" y="819.5">+whereTitle(String)</text></g></g><g transform="translate(-14,2) scale(1,1)"><g><path fill="none" stroke="none"/><text fill="#000000" stroke="none" font-family="Arial" font-size="13px" font-style="normal" font-weight="normal" text-decoration="none" x="93" y="834.5">+whereAuthor(String)</text></g></g><g transform="translate(-14,2) scale(1,1)"><g><path fill="none" stroke="none"/><text fill="#000000" stroke="none" font-family="Arial" font-size="13px" font-style="normal" font-weight="normal" text-decoration="none" x="93" y="849.5">+whereKeyword(String)</text></g></g><g transform="translate(-14,2) scale(1,1)"><g><path fill="none" stroke="none"/><text fill="#000000" stroke="none" font-family="Arial" font-size="13px" font-style="normal" font-weight="normal" text-decoration="none" x="93" y="864.5">+whereCategory(String)</text></g></g><g transform="translate(-14,2) scale(1,1)"><rect fill="#C0C0C0" stroke="none" x="839" y="663" width="175" height="55" opacity="0.2"/></g><g transform="translate(-14,2) scale(1,1)"><rect fill="#ffffff" stroke="none" x="832" y="656" width="175" height="55"/></g><g transform="translate(-14,2) scale(1,1)"><path fill="none" stroke="#000000" d="M 832 656 L 1007 656 L 1007 711 L 832 711 L 832 656 Z Z" stroke-miterlimit="10"/></g><g transform="translate(-14,2) scale(1,1)"><path fill="none" stroke="#000000" d="M 832 681 L 1007 681" stroke-miterlimit="10"/></g><g transform="translate(-14,2) scale(1,1)"><path fill="none" stroke="#000000" d="M 832 691 L 1007 691" stroke-miterlimit="10"/></g><g transform="translate(-14,2) scale(1,1)"><g><path fill="none" stroke="none"/><text fill="#000000" stroke="none" font-family="Arial" font-size="13px" font-style="normal" font-weight="bold" text-decoration="none" x="891.32275390625" y="675.5">Controller</text></g></g><g transform="translate(-14,2) scale(1,1)"><path fill="none" stroke="#000000" d="M 391 766 L 236 796" stroke-miterlimit="10"/></g><g transform="translate(-14,2) scale(1,1)"><path fill="#FFFFFF" stroke="none" d="M 245.17760881359484 789.9360494341868 L 236 796 L 246.77740999303685 798.2016888613039 L 257.5991567129862 791.819518055551"/></g><g transform="translate(-14,2) scale(1,1)"><path fill="none" stroke="#000000" d="M 245.17760881359484 789.9360494341868 L 236 796 L 246.77740999303685 798.2016888613039 L 257.5991567129862 791.819518055551 L 245.17760881359484 789.9360494341868" stroke-miterlimit="10"/></g><g transform="translate(-14,2) scale(1,1)"><rect fill="#C0C0C0" stroke="none" x="751" y="783" width="90.39599609375" height="44" opacity="0.2"/></g><g transform="translate(-14,2) scale(1,1)"><rect fill="#ffffff" stroke="none" x="744" y="776" width="90.39599609375" height="44"/></g><g transform="translate(-14,2) scale(1,1)"><path fill="none" stroke="#000000" d="M 744 776 L 834.39599609375 776 L 834.39599609375 820 L 744 820 L 744 776 Z Z" stroke-miterlimit="10"/></g><g transform="translate(-14,2) scale(1,1)"><path fill="none" stroke="#000000" d="M 744 801 L 834.39599609375 801" stroke-miterlimit="10"/></g><g transform="translate(-14,2) scale(1,1)"><path fill="none" stroke="#000000" d="M 744 811 L 834.39599609375 811" stroke-miterlimit="10"/></g><g transform="translate(-14,2) scale(1,1)"><g><path fill="none" stroke="none"/><text fill="#000000" stroke="none" font-family="Arial" font-size="13px" font-style="normal" font-weight="bold" text-decoration="none" x="750.658203125" y="795.5">WebInterface</text></g></g><g transform="translate(-14,2) scale(1,1)"><rect fill="#C0C0C0" stroke="none" x="999" y="551" width="66.80810546875" height="44" opacity="0.2"/></g><g transform="translate(-14,2) scale(1,1)"><rect fill="#ffffff" stroke="none" x="992" y="544" width="66.80810546875" height="44"/></g><g transform="translate(-14,2) scale(1,1)"><path fill="none" stroke="#000000" d="M 992 544 L 1058.80810546875 544 L 1058.80810546875 588 L 992 588 L 992 544 Z Z" stroke-miterlimit="10"/></g><g transform="translate(-14,2) scale(1,1)"><path fill="none" stroke="#000000" d="M 992 569 L 1058.80810546875 569" stroke-miterlimit="10"/></g><g transform="translate(-14,2) scale(1,1)"><path fill="none" stroke="#000000" d="M 992 579 L 1058.80810546875 579" stroke-miterlimit="10"/></g><g transform="translate(-14,2) scale(1,1)"><g><path fill="none" stroke="none"/><text fill="#000000" stroke="none" font-family="Arial" font-size="13px" font-style="normal" font-weight="bold" text-decoration="none" x="997.5791015625" y="563.5">Database</text></g></g><g transform="translate(-14,2) scale(1,1)"><path fill="none" stroke="#000000" d="M 1004 589 L 944 655" stroke-miterlimit="10"/></g><g transform="translate(-14,2) scale(1,1)"><path fill="#FFFFFF" stroke="none" d="M 947.7213640136061 644.6486015496341 L 944 655 L 953.9509457683021 650.3118576902668 L 958.7988014679189 638.7213183852892"/></g><g transform="translate(-14,2) scale(1,1)"><path fill="none" stroke="#000000" d="M 947.7213640136061 644.6486015496341 L 944 655 L 953.9509457683021 650.3118576902668 L 958.7988014679189 638.7213183852892 L 947.7213640136061 644.6486015496341" stroke-miterlimit="10"/></g><g transform="translate(-14,2) scale(1,1)"><path fill="none" stroke="#000000" d="M 886 712 L 815 775" stroke-miterlimit="10"/></g><g transform="translate(-14,2) scale(1,1)"><path fill="#FFFFFF" stroke="none" d="M 819.8076842960663 765.1062559306723 L 815 775 L 825.3954796902984 771.4036126448068 L 831.4557861186074 760.3983869651793"/></g><g transform="translate(-14,2) scale(1,1)"><path fill="none" stroke="#000000" d="M 819.8076842960663 765.1062559306723 L 815 775 L 825.3954796902984 771.4036126448068 L 831.4557861186074 760.3983869651793 L 819.8076842960663 765.1062559306723" stroke-miterlimit="10"/></g><g transform="translate(-14,2) scale(1,1)"><rect fill="#C0C0C0" stroke="none" x="935" y="783" width="50.919921875" height="44" opacity="0.2"/></g><g transform="translate(-14,2) scale(1,1)"><rect fill="#ffffff" stroke="none" x="928" y="776" width="50.919921875" height="44"/></g><g transform="translate(-14,2) scale(1,1)"><path fill="none" stroke="#000000" d="M 928 776 L 978.919921875 776 L 978.919921875 820 L 928 820 L 928 776 Z Z" stroke-miterlimit="10"/></g><g transform="translate(-14,2) scale(1,1)"><path fill="none" stroke="#000000" d="M 928 801 L 978.919921875 801" stroke-miterlimit="10"/></g><g transform="translate(-14,2) scale(1,1)"><path fill="none" stroke="#000000" d="M 928 811 L 978.919921875 811" stroke-miterlimit="10"/></g><g transform="translate(-14,2) scale(1,1)"><g><path fill="none" stroke="none"/><text fill="#000000" stroke="none" font-family="Arial" font-size="13px" font-style="normal" font-weight="bold" text-decoration="none" x="942.983154296875" y="795.5">API</text></g></g><g transform="translate(-14,2) scale(1,1)"><path fill="none" stroke="#000000" d="M 928 712 L 946 775" stroke-miterlimit="10"/></g><g transform="translate(-14,2) scale(1,1)"><path fill="#FFFFFF" stroke="none" d="M 939.1605463702306 766.3847882181439 L 946 775 L 947.2556506310877 764.0719012864703 L 939.9561351862577 753.8464731519019"/></g><g transform="translate(-14,2) scale(1,1)"><path fill="none" stroke="#000000" d="M 939.1605463702306 766.3847882181439 L 946 775 L 947.2556506310877 764.0719012864703 L 939.9561351862577 753.8464731519019 L 939.1605463702306 766.3847882181439" stroke-miterlimit="10"/></g><g transform="translate(-14,2) scale(1,1)"><path fill="none" stroke="#000000" d="M 547 693 L 745 546" stroke-miterlimit="10"/></g><g transform="translate(-14,2) scale(1,1)"><path fill="#FFFFFF" stroke="none" d="M 739.3495782068491 555.4378352157412 L 745 546 L 734.3309911527269 548.6781057142706 L 727.3359755615924 559.1141999618482"/></g><g transform="translate(-14,2) scale(1,1)"><path fill="none" stroke="#000000" d="M 739.3495782068491 555.4378352157412 L 745 546 L 734.3309911527269 548.6781057142706 L 727.3359755615924 559.1141999618482 L 739.3495782068491 555.4378352157412" stroke-miterlimit="10"/></g><g transform="translate(-14,2) scale(1,1)"><g><path fill="none" stroke="none"/><text fill="#000000" stroke="none" font-family="Arial" font-size="13px" font-style="normal" font-weight="normal" text-decoration="none" x="568.5" y="696.5">*</text></g></g><g transform="translate(-14,2) scale(1,1)"><g><path fill="none" stroke="none"/><text fill="#000000" stroke="none" font-family="Arial" font-size="13px" font-style="normal" font-weight="normal" text-decoration="none" x="732.5" y="574.5">*</text></g></g><g transform="translate(-14,2) scale(1,1)"><path fill="none" stroke="#000000" d="M 991 559 L 828 525" stroke-miterlimit="10"/></g><g transform="translate(-14,2) scale(1,1)"><path fill="#FFFFFF" stroke="none" d="M 838.8081102194908 522.9543329979344 L 828 525 L 837.0889930372236 531.1959830188034 L 849.53646937348 529.4922696852658"/></g><g transform="translate(-14,2) scale(1,1)"><path fill="none" stroke="#000000" d="M 838.8081102194908 522.9543329979344 L 828 525 L 837.0889930372236 531.1959830188034 L 849.53646937348 529.4922696852658 L 838.8081102194908 522.9543329979344" stroke-miterlimit="10"/></g></g></svg>
